<svg width="20" height="20" viewBox="0 0 20 20" fill="none" xmlns="http://www.w3.org/2000/svg">
<g clip-path="url(#clip0_12_28)">
<path d="M19.2667 8.25834L16.0417 5.00001C15.9642 4.9219 15.872 4.85991 15.7705 4.8176C15.6689 4.77529 15.56 4.75351 15.45 4.75351C15.34 4.75351 15.2311 4.77529 15.1295 4.8176C15.028 4.85991 14.9358 4.9219 14.8583 5.00001C14.7031 5.15614 14.616 5.36735 14.616 5.58751C14.616 5.80766 14.7031 6.01887 14.8583 6.17501L17.825 9.16668H0.833333C0.61232 9.16668 0.400358 9.25447 0.244078 9.41075C0.0877974 9.56703 0 9.77899 0 10C0 10.221 0.0877974 10.433 0.244078 10.5893C0.400358 10.7455 0.61232 10.8333 0.833333 10.8333H17.875L14.8583 13.8417C14.7802 13.9191 14.7182 14.0113 14.6759 14.1129C14.6336 14.2144 14.6118 14.3233 14.6118 14.4333C14.6118 14.5434 14.6336 14.6523 14.6759 14.7538C14.7182 14.8554 14.7802 14.9475 14.8583 15.025C14.9358 15.1031 15.028 15.1651 15.1295 15.2074C15.2311 15.2497 15.34 15.2715 15.45 15.2715C15.56 15.2715 15.6689 15.2497 15.7705 15.2074C15.872 15.1651 15.9642 15.1031 16.0417 15.025L19.2667 11.7917C19.7348 11.3229 19.9978 10.6875 19.9978 10.025C19.9978 9.36251 19.7348 8.72709 19.2667 8.25834Z" fill="white"/>
</g>
<defs>
<clipPath id="clip0_12_28">
<rect width="20" height="20" fill="white"/>
</clipPath>
</defs>
</svg>
