<svg width="25" height="50" viewBox="0 0 25 50" fill="none" xmlns="http://www.w3.org/2000/svg">
<path d="M2.21449 49.8013C1.92473 49.8029 1.63749 49.7506 1.36923 49.6473C1.10098 49.5441 0.856996 49.392 0.651266 49.1997C0.444902 49.0068 0.281107 48.7773 0.169328 48.5245C0.0575497 48.2717 0 48.0005 0 47.7266C0 47.4527 0.0575497 47.1816 0.169328 46.9288C0.281107 46.6759 0.444902 46.4465 0.651266 46.2536L18.6394 29.3033C19.8763 28.1363 20.5711 26.5543 20.5711 24.9049C20.5711 23.2555 19.8763 21.6736 18.6394 20.5065L0.651266 3.55623C0.236673 3.16556 0.00375746 2.63569 0.00375746 2.08319C0.00375746 1.53069 0.236673 1.00083 0.651266 0.610152C1.06586 0.219478 1.62817 0 2.21449 0C2.80081 0 3.36312 0.219478 3.77771 0.610152L21.7658 17.5605C22.791 18.5241 23.6044 19.6688 24.1594 20.9291C24.7143 22.1894 25 23.5404 25 24.9049C25 26.2694 24.7143 27.6205 24.1594 28.8807C23.6044 30.141 22.791 31.2857 21.7658 32.2494L3.77771 49.1997C3.57199 49.392 3.328 49.5441 3.05975 49.6473C2.79149 49.7506 2.50425 49.8029 2.21449 49.8013Z" fill="#020F89"/>
</svg>
