<svg width="12" height="25" viewBox="0 0 12 25" fill="none" xmlns="http://www.w3.org/2000/svg">
<path d="M1.06296 25C0.92387 25.0008 0.785994 24.9745 0.657233 24.9227C0.528471 24.8708 0.411358 24.7945 0.312608 24.698C0.213553 24.6011 0.134931 24.4859 0.0812776 24.359C0.0276239 24.2321 0 24.096 0 23.9585C0 23.821 0.0276239 23.6849 0.0812776 23.558C0.134931 23.431 0.213553 23.3159 0.312608 23.219L8.94689 14.7101C9.54062 14.1242 9.87411 13.3301 9.87411 12.5021C9.87411 11.6741 9.54062 10.88 8.94689 10.2942L0.312608 1.78521C0.113603 1.58909 0.00180358 1.3231 0.00180358 1.04575C0.00180358 0.7684 0.113603 0.502409 0.312608 0.306293C0.511612 0.110177 0.781521 0 1.06296 0C1.34439 0 1.6143 0.110177 1.8133 0.306293L10.4476 8.81525C10.9397 9.29898 11.3301 9.87363 11.5965 10.5063C11.8629 11.1389 12 11.8172 12 12.5021C12 13.1871 11.8629 13.8653 11.5965 14.498C11.3301 15.1306 10.9397 15.7053 10.4476 16.189L1.8133 24.698C1.71455 24.7945 1.59744 24.8708 1.46868 24.9227C1.33992 24.9745 1.20204 25.0008 1.06296 25Z" fill="#8F00FF"/>
</svg>
